<svg data-name="图层 1" xmlns="http://www.w3.org/2000/svg" viewBox="0 0 173.66 173.66"><path d="M123.41 114.82H50.25a4.67 4.67 0 100 9.33h73.19a4.81 4.81 0 004.92-4.65 4.86 4.86 0 00-5-4.68h0zm9.4-32.68h-92a4.69 4.69 0 100 9.37h92a4.69 4.69 0 100-9.37h0zm-82.56-23.3h73.19a4.67 4.67 0 100-9.33H50.25a4.67 4.67 0 100 9.33zM86.83 2a84.83 84.83 0 1084.84 84.83A84.9 84.9 0 0086.83 2zm0 163.35a78.52 78.52 0 1178.52-78.52 78.6 78.6 0 01-78.52 78.52z" fill="#3fb09a" stroke="#3fb09a" stroke-miterlimit="10" stroke-width="4"/></svg>