<svg data-name="图层 1" xmlns="http://www.w3.org/2000/svg" viewBox="0 0 163.66 163.66"><path d="M157.23 49.98a81.55 81.55 0 00-17.53-26 81.55 81.55 0 00-26-17.53A81.33 81.33 0 0081.85.02 81.33 81.33 0 0050 6.45a81.55 81.55 0 00-26 17.53 81.55 81.55 0 00-17.53 26A81.32 81.32 0 00.04 81.83a81.33 81.33 0 006.43 31.85 81.56 81.56 0 0017.53 26 81.54 81.54 0 0026 17.53 81.32 81.32 0 0031.85 6.43 81.32 81.32 0 0031.85-6.43 81.55 81.55 0 0026-17.53 81.55 81.55 0 0017.53-26 81.33 81.33 0 006.43-31.85 81.32 81.32 0 00-6.43-31.85zm-31.3 67.47l-8.48 8.48-35.61-35.61-35.9 35.9-8.48-8.48 35.9-35.9-35.9-35.9 8.48-8.48 35.9 35.9 35.9-35.9 8.48 8.48-35.9 35.9 35.61 35.61z" fill="#ff2626"/></svg>