<svg data-name="图层 1" xmlns="http://www.w3.org/2000/svg" viewBox="0 0 143.26 143.2"><path d="M110.79 119.17a141 141 0 00-.5-18.39 11.46 11.46 0 005.57-6.66q6.58-.37 13.63-1.4a61.87 61.87 0 01-18.7 26.45zm-52.53 12.56c12.13-14.36 28.93-26 39.23-32.35a11.47 11.47 0 005.17 2.56 134.22 134.22 0 01.25 22.68 60.93 60.93 0 01-44.65 7.12zm-37.63-25.51a109.15 109.15 0 0112.44-32 11.55 11.55 0 002.59.31 11.34 11.34 0 005.12-1.24 108 108 0 0051.6 20.19c-11.41 7.12-29.42 19.87-42.06 35.89a61.94 61.94 0 01-29.69-23.15zm-5.4-59.43A109.29 109.29 0 0024.93 59a11.15 11.15 0 001.7 11.07A119.49 119.49 0 0015.22 96.4a61.14 61.14 0 01.01-49.61zm30.12-30.86a110.27 110.27 0 0115.61 10.25 11.4 11.4 0 00-1 4.66 11.22 11.22 0 00.35 2.7A114.8 114.8 0 0039.44 52.2a10.94 10.94 0 00-9.49.91 98.33 98.33 0 01-10.59-14 62 62 0 0125.99-23.18zm52.28-.13a144.29 144.29 0 00-18.1 6.82 11.33 11.33 0 00-13.24-2 123.32 123.32 0 00-11.66-8.2 60.78 60.78 0 0143 3.38zM45.47 57.01a108.13 108.13 0 0119.09-17 11.23 11.23 0 0012.07 1.06 105.85 105.85 0 0121.92 40A11.65 11.65 0 0094.37 86a100.88 100.88 0 01-48.2-18.3 11.35 11.35 0 00-.7-10.69zm87.82 14.59a61.85 61.85 0 01-1.42 13 145.55 145.55 0 01-16.24 1.88 11.47 11.47 0 00-9.54-7.2 113.33 113.33 0 00-24.07-43.8 11.41 11.41 0 001-4.61 12.39 12.39 0 00-.13-1.3 138.38 138.38 0 0124-8.43 61.55 61.55 0 0126.42 50.5zM71.63 0a71.6 71.6 0 1071.63 71.6A71.69 71.69 0 0071.63 0z" fill="#3fb09a"/></svg>