<svg id="图层_1" data-name="图层 1" xmlns="http://www.w3.org/2000/svg" viewBox="0 0 200 200"><defs><style>.cls-2{fill:#a2a0bc}</style></defs><path d="M100 0a100 100 0 10100 100A100 100 0 00100 0z" fill="#eceef1"/><path class="cls-2" d="M126.19 110.85c-6.67 5.33-25.53 16.58-51.67-.42-7.87 5.92-28.87 22.9-26.53 34.37 0 0 .42 12 22.63 12.52 0 0 66.22 4.78 77.22-6.35s12-7.58-3.88-24.3z"/><path class="cls-2" d="M122 102.81a35.16 35.16 0 0012-26.65c0-19.07-14.63-34.5-32.67-34.5-18.07 0-32.7 15.43-32.7 34.47a35.28 35.28 0 009.65 24.47c.72.71 21.54 19.48 43.72 2.21z"/></svg>