<svg data-name="图层 1" xmlns="http://www.w3.org/2000/svg" viewBox="0 0 184.62 184.63"><circle cx="94.92" cy="95.09" r="82.11" fill="#a2a0bc"/><path d="M92.31 0a92.32 92.32 0 1092.31 92.31A92.31 92.31 0 0092.31 0zm39.62 43.08a16.05 16.05 0 002.31-3.08c1.54-1.92 3.85-1.54 5.38-1.15s3.85 2.31 5 4.23a4 4 0 010 5 17.38 17.38 0 01-2.31 3.08l-10.38-8.08zm7.31 12.31s-18.46 23.85-19.23 25c-.77.77-1.54 1.15-2.31 1.92a63.7 63.7 0 01-9.23 4.23c-1.92.38-2.31 0-2.31-1.92a57.62 57.62 0 011.54-9.23 22.06 22.06 0 011.54-2.69c1.15-1.54 19.61-25.39 19.61-25.39zm-17.69 52.31H70.77c-.77 0-1.15-.77-1.54-1.92v-7.69a1.88 1.88 0 011.15-1.92h51.15a1.76 1.76 0 011.54 1.92v7.69a1.76 1.76 0 01-1.53 1.91zm1.54 9.62v7.69a1.76 1.76 0 01-1.54 1.92H70.77c-.77 0-1.15-.77-1.54-1.92v-7.7a1.88 1.88 0 011.15-1.92h51.15a1.76 1.76 0 011.55 1.92zm23.08 18.85a10.18 10.18 0 01-10 10h-80.4a9.52 9.52 0 01-9.62-9.62V48.46a10.18 10.18 0 0110-10h67.31L115.38 50H57.69v84.62h76.92V71.16l11.54-8.08v73.08z" fill="#eceef1"/></svg>