<svg id="图层_1" data-name="图层 1" xmlns="http://www.w3.org/2000/svg" viewBox="0 0 195.97 200"><defs><style>.cls-1{fill:#3fb09a}</style></defs><path class="cls-1" d="M13.29 117.45a11.23 11.23 0 005.09-2.55c1.45-1.45 2.18-2.91 1.82-4.73v-1.45c0-28 15.64-53.82 40-67.64a8.46 8.46 0 003.27-4 6.19 6.19 0 00-.72-5.08c-1.09-1.82-2.18-2.91-4-3.27a5.8 5.8 0 00-5.45.73 91.58 91.58 0 00-46.91 79.63V112c.36 2.91 3.27 5.45 6.9 5.45zm121.82-76c24.73 13.82 40.36 39.64 40.36 67.64v1.09a4.53 4.53 0 001.09 4.36c1.45 1.82 2.91 2.91 5.45 2.91h.73a6.69 6.69 0 006.55-6.18v-2.55a90.58 90.58 0 00-46.91-79.27c-1.82-1.09-3.27-1.09-5.45-.73-1.82.36-2.91 1.82-4.36 3.27-1.09 1.82-1.45 3.64-.73 5.09a7 7 0 003.27 4.37zm5.45 132.73h-1.82l-1.82.73c-24 13.82-55.64 13.82-79.64 0l-.73-.36h-2.16c-4 0-6.55 2.91-6.55 6.91 0 2.55 1.09 4.36 3.27 6.18A92.76 92.76 0 0097.66 200a90.45 90.45 0 0046.55-12.73c3.27-2.55 4-4.36 4-6.18-.73-3.64-3.64-6.91-7.64-6.91z"/><path class="cls-1" d="M195.11 144.73a24.24 24.24 0 00-11.64-15.64c-4.36-2.91-9.09-2.91-12.36-2.91a24.85 24.85 0 00-17.11 6.91l-.36.36-20.73-12v-.36a38.22 38.22 0 002.18-12c0-17.45-12.36-32.36-29.82-36h-.36V48.73h.36a24.66 24.66 0 0017.82-24C122.39 11.27 111.48 0 97.66 0a24.83 24.83 0 00-24.73 25.09c0 10.91 6.91 20.36 17.82 24h.36v23.64h-.72a36.6 36.6 0 00-29.82 36 32 32 0 002.18 12v.36l-20.75 12-.36-.36a27.83 27.83 0 00-17.09-6.55 32.44 32.44 0 00-12.36 2.91A21.59 21.59 0 00.93 144c-1.45 6.55-1.45 13.45 1.82 18.91 3.64 8 12 12.73 21.45 12.73 5.82 0 10.18-2.18 12.36-2.91 9.45-5.09 14.18-16 11.27-27.27v-.36l20.37-11.65.36.36a37.35 37.35 0 0027.64 12.74 36.29 36.29 0 0028-12.73l.36-.36 20.36 11.64v.36c-2.18 10.18 2.18 20.73 11.27 26.91 3.64 2.55 9.45 4 14.91 4a7.09 7.09 0 002.9-.37 23.91 23.91 0 0017.82-11.64c4.73-8 4.73-13.09 3.27-19.64zm-159.63 8.72A10.83 10.83 0 0130 160a8 8 0 01-5.82 1.82 11.79 11.79 0 01-9.79-5.82 11.28 11.28 0 01-1.45-8.36c.73-2.91 2.55-5.09 5.45-6.91a9.8 9.8 0 015.45-1.82 11.79 11.79 0 019.82 5.82 11.36 11.36 0 011.82 8.73zM86 25.09a11.27 11.27 0 1111.29 11.27A11.57 11.57 0 0186 25.09zM97.66 132C84.93 132 74 121.82 74 108.73a23.28 23.28 0 0123.66-23.28c12.73 0 23.64 10.18 23.64 23.27A23.75 23.75 0 0197.66 132zm83.27 24a10.4 10.4 0 01-9.09 5.45 10.54 10.54 0 01-6.55-1.82c-2.55-1.82-4.73-4-5.45-7.27a7.62 7.62 0 011.45-7.27 12.68 12.68 0 019.45-6.18h1.09a8.41 8.41 0 016.55 2.55c4.36 3.64 5.09 9.09 2.55 14.55z"/></svg>