<svg xmlns="http://www.w3.org/2000/svg" width="20" height="20"><defs><clipPath id="a"><path data-name="矩形 7761" transform="translate(360 738)" fill="#359836" stroke="#707070" d="M0 0h20v20H0z"/></clipPath></defs><g transform="translate(-360 -738)" clip-path="url(#a)"><path data-name="路径 2478" d="M360 738h20v20h-20z" fill="none"/><path data-name="路径 2479" d="M376.736 750.667l1 .6a.417.417 0 010 .715l-7.308 4.385a.833.833 0 01-.858 0l-7.308-4.385a.417.417 0 010-.715l1-.6 6.738 4.041 6.736-4.042zm0-3.917l1 .6a.417.417 0 010 .715L370 752.708l-7.737-4.642a.417.417 0 010-.715l1-.6 6.737 4.041zm-6.308-7.659l7.309 4.385a.417.417 0 010 .715L370 748.833l-7.738-4.642a.417.417 0 010-.715l7.309-4.385a.833.833 0 01.858 0zm-.428 1.686l-5.094 3.056L370 746.89l5.094-3.057z" fill="#359836"/></g></svg>