<svg xmlns="http://www.w3.org/2000/svg" width="20" height="20"><defs><clipPath id="a"><path data-name="矩形 7766" transform="rotate(90 -183 601)" fill="#359836" stroke="#707070" d="M0 0h20v20H0z"/></clipPath></defs><g data-name="矿池（点中）" transform="translate(-398 -784)" clip-path="url(#a)"><path data-name="路径 2500" d="M398 784h20v20h-20z" fill="none"/><path data-name="路径 2501" d="M401.333 786.5h13.334a.833.833 0 01.833.833v5.834h-15v-5.834a.833.833 0 01.833-.833zm-.833 8.333h15v5.833a.833.833 0 01-.833.833h-13.334a.833.833 0 01-.833-.833zm3.333 2.5V799h2.5v-1.667zm0-8.333v1.667h2.5V789z" fill="#3fb09a"/></g></svg>