<svg version="1.1" id="图层_1" xmlns="http://www.w3.org/2000/svg" x="0" y="0" viewBox="0 0 200 200" xml:space="preserve"><style>.st0{fill:#3fb09a}</style><path class="st0" d="M100 46.9c-10.1 0-19.6 3.9-26.8 11.1-7.1 7.1-11.1 16.7-11.1 26.8 0 10.1 3.9 19.6 11.1 26.8 7.1 7.1 16.7 11.1 26.8 11.1 10.1 0 19.6-3.9 26.8-11.1 7.1-7.1 11.1-16.7 11.1-26.8 0-10.1-3.9-19.6-11.1-26.8S110.1 46.9 100 46.9zm0 88c-6.1 0-12.1-1.1-17.8-3.3v19.8l17.1-6.5 18.5 6.6v-19.9c-5.7 2.2-11.7 3.3-17.8 3.3z"/><path class="st0" d="M100 0C44.8 0 0 44.8 0 100s44.8 100 100 100 100-44.8 100-100S155.2 0 100 0zm46.2 104.3c-2.5 6-6.1 11.3-10.7 15.9-2.5 2.5-5.2 4.6-8 6.5v38.5l-28-10-26.8 10.1v-38.6c-2.9-1.9-5.6-4.1-8-6.5-4.6-4.6-8.2-10-10.7-15.9-2.6-6.2-3.9-12.8-3.9-19.5 0-6.8 1.3-13.3 3.9-19.5 2.5-6 6.1-11.3 10.7-15.9s10-8.2 15.9-10.7c6.2-2.6 12.8-3.9 19.5-3.9s13.3 1.3 19.5 3.9c6 2.5 11.3 6.1 15.9 10.7s8.2 10 10.7 15.9c2.6 6.2 3.9 12.8 3.9 19.5.1 6.7-1.3 13.3-3.9 19.5z"/></svg>