<svg xmlns="http://www.w3.org/2000/svg" width="20" height="20"><defs><clipPath id="a"><path data-name="矩形 7764" transform="rotate(90 -120.5 617.5)" fill="#359836" stroke="#707070" d="M0 0h20v20H0z"/></clipPath></defs><g transform="translate(-477 -738)" clip-path="url(#a)"><path data-name="路径 2484" d="M477 738h20v20h-20z" fill="none"/><path data-name="路径 2485" d="M494.5 754.667h1.667v1.667h-18.334v-1.667h1.667V740.5a.833.833 0 01.833-.833h13.334a.833.833 0 01.833.833zm-1.667 0v-13.334h-11.666v13.334zm-9.167-7.5h2.5v1.667h-2.5zm0-3.333h2.5v1.666h-2.5zm0 6.667h2.5v1.667h-2.5zm4.167 0h2.5v1.667h-2.5zm0-3.333h2.5v1.667h-2.5zm0-3.333h2.5v1.665h-2.5z" fill="#359836"/></g></svg>