<svg data-name="图层 1" xmlns="http://www.w3.org/2000/svg" viewBox="0 0 175.23 175.27"><circle cx="88.57" cy="94.57" r="74.45" fill="#a2a0bc"/><path d="M87.63 0A87.62 87.62 0 00-.04 87.61a87.62 87.62 0 10175.23.05v-.05A87.62 87.62 0 0087.63 0zm43.8 129.44h-27.38a5.48 5.48 0 01-5.48-5.48v-15.05a4.11 4.11 0 014.11-4.11h8.38c4 0 5.15-2.77 2.5-6.15L92.44 71.79a5.86 5.86 0 00-9.65 0L61.68 98.66c-2.65 3.38-1.53 6.15 2.5 6.15h8.38a4.11 4.11 0 014.11 4.11v15.06a5.48 5.48 0 01-5.48 5.48h-21.9a27.36 27.36 0 01-4.13-54.43 43.78 43.78 0 0186.27 10.61 21.905 21.905 0 010 43.81z" fill="#eceef1"/></svg>