<svg id="图层_1" data-name="图层 1" xmlns="http://www.w3.org/2000/svg" viewBox="0 0 193 193"><defs><style>.cls-1{fill:#3fb09a}</style></defs><path class="cls-1" d="M100.5 4.06a96.5 96.5 0 1096.5 96.5 96.5 96.5 0 00-96.5-96.5zm49.63 121.23a12.43 12.43 0 01-12.42 12.42H106.3l-20.72 14a8 8 0 01-12.46-6.62v-7.39H62.29a12.43 12.43 0 01-12.42-12.42V67.61a12.43 12.43 0 0112.42-12.42h75.42a12.43 12.43 0 0112.42 12.42v57.67z" transform="translate(-4 -4.06)"/><path class="cls-1" d="M72.64 88.29a8.4 8.4 0 00-8.4 8.4 8.4 8.4 0 0016.8 0 8.4 8.4 0 00-8.4-8.4zm28.37 0a8.4 8.4 0 00-8.4 8.4 8.4 8.4 0 0016.8 0 8.4 8.4 0 00-8.41-8.4zm19.77 8.39a8.4 8.4 0 108.4-8.4 8.4 8.4 0 00-8.4 8.4z" transform="translate(-4 -4.06)"/></svg>