<svg xmlns="http://www.w3.org/2000/svg" width="50" height="50"><defs><linearGradient id="a" x1=".5" x2=".5" y2="1" gradientUnits="objectBoundingBox"><stop offset="0" stop-color="#ffda1c"/><stop offset="1" stop-color="#f1ca00"/></linearGradient><clipPath id="b"><path data-name="矩形 7758" transform="translate(1538 675)" fill="#fff" stroke="#707070" d="M0 0h24v24H0z"/></clipPath></defs><g data-name="组 3300" transform="translate(-1525 -662)"><circle data-name="椭圆 1564" cx="25" cy="25" r="25" transform="translate(1525 662)" fill="url(#a)"/><g data-name="蒙版组 1096" clip-path="url(#b)"><path data-name="路径 2458" d="M1538 675h24v24h-24z" fill="none"/><path data-name="路径 2459" d="M1560 688h-2v-7.762l-16-.022V694h10v2h-11a1 1 0 01-1-1v-16a1 1 0 011-1h18a1 1 0 011 1zm-17.489-8zM1559 693h3v2h-3v3h-2v-3h-3v-2h3v-3h2z" fill="#fff"/></g></g></svg>