<svg data-name="图层 1" xmlns="http://www.w3.org/2000/svg" viewBox="0 0 174.62 174.83"><path d="M12.47 94.23a75.08 75.08 0 01138-47.3l-82.7 82.7a6 6 0 00-1.3 6.7 6.28 6.28 0 005.7 3.7l34.6-.7a6.12 6.12 0 006-6.2 6 6 0 00-1.9-4.4 6.21 6.21 0 00-4.3-1.6l-19.5.4 75.4-75.4a6.2 6.2 0 001-7.3 87 87 0 00-143.2-13.3 86.52 86.52 0 00-19.9 63.8 91.17 91.17 0 003.3 17.3 5.7 5.7 0 003 3.6 6.15 6.15 0 004.6.5 5.86 5.86 0 003.6-2.9 6.15 6.15 0 00.5-4.6 76.49 76.49 0 01-2.9-15zm161.8-14.6a6.13 6.13 0 00-6.6-5.5 6.06 6.06 0 00-5.5 6.6 75.26 75.26 0 01-68.1 81.6 76.18 76.18 0 01-63.8-25.9l83.1-83.1a6.11 6.11 0 001.2-6.9 6.2 6.2 0 00-6.1-3.5l-34.8 3.1a6.125 6.125 0 001.1 12.2l18.1-1.6-75.2 75.1a6.09 6.09 0 00-.5 8 89.05 89.05 0 0070.4 35.1c2.5 0 5.1-.1 7.6-.3a87.56 87.56 0 0079.1-94.9z" fill="#3fb09a"/></svg>