<svg xmlns="http://www.w3.org/2000/svg" viewBox="0 0 800 600"><linearGradient id="a" gradientUnits="userSpaceOnUse" x1="547.779" y1="56.649" x2="252.236" y2="568.545"><stop offset="0" stop-color="#bcd300"/><stop offset="1" stop-color="#009fe8"/></linearGradient><path d="M229.1 102.6c80.2 0 149.9 45 185.3 111.1 26.5 49.5 14 106.9 37.1 155.5 15.5 32.7 44.1 58.1 79.1 69.3V295.3c0-11.8 18.2-21.4 40.4-21.4s40.4 9.6 40.4 21.4v143.2c53.2-17.1 91.8-67 91.8-125.9 0-73-59.2-132.2-132.2-132.2-32.2 0-61.7 11.5-84.7 30.7l10.8 14.8-70.2-10.9 5.2-78.3 8.4 11.5c35.8-28.5 81.2-45.5 130.5-45.5 116 0 210 94.1 210 210 0 116-94.1 210-210 210-97.7 0-179.8-66.7-203.3-157.1-11.9-45.7-2.4-91.4-32.5-131.8-16.3-21.9-39.2-38.6-65.7-47.1v143.2c0 11.8-18.2 21.4-40.4 21.4s-40.4-9.6-40.4-21.4V186.7c-53.2 17.1-91.8 67-91.8 125.9 0 73 59.2 132.2 132.2 132.2 32.2 0 61.7-11.5 84.6-30.7l-9.2-12.7 70.2 10.9-5.2 78.3-9.9-13.6c-35.8 28.5-81.2 45.5-130.5 45.5-116 0-210-94.1-210-210-.1-115.9 94-209.9 210-209.9z" fill-rule="evenodd" clip-rule="evenodd" fill="url(#a)"/></svg>