<svg id="图层_1" data-name="图层 1" xmlns="http://www.w3.org/2000/svg" viewBox="0 0 149.91 149.92"><defs><style>.cls-1{fill:#3fb09a}</style></defs><path class="cls-1" d="M87.36 34.4h78.12v131.12H34.36V34.4h53m86.28-9.4H26.78C25 25 25 25.06 25 26.79v146.36c0 1.69.05 1.75 1.73 1.75h146.34c1.76 0 1.79 0 1.79-1.77V26.77a1.83 1.83 0 000-.83 2.57 2.57 0 00-.87-.89.65.65 0 00-.33-.07z" transform="translate(-24.99 -24.98)"/><path class="cls-1" d="M131.18 56.36l14.72 14.81c-.14.15-.37.4-.61.64l-61.36 61.25a14.83 14.83 0 01-5.3 3.43c-4.78 1.81-9.53 3.69-14.31 5.52a12.34 12.34 0 01-2 .54 1.9 1.9 0 01-2.32-2.32c.6-2.12 1.29-4.23 2.05-6.3 1.41-3.8 2.9-7.57 4.34-11.35a12.8 12.8 0 013-4.58q30.54-30.43 61-60.91c.29-.26.61-.51.79-.73z" transform="translate(-24.99 -24.98)"/></svg>