<svg version="1.1" id="图层_1" xmlns="http://www.w3.org/2000/svg" x="0" y="0" viewBox="0 0 200 200" xml:space="preserve"><style>.st0{fill:#3fb09a}</style><path class="st0" d="M124.1 87l-23.6-23.6-46.7 51v20.7h21.1zm-4.2-41.5l23.6 23.7 9.4-9.3L129 36.2z"/><path class="st0" d="M100 0C44.8 0 0 44.8 0 100s44.8 100 100 100 100-44.8 100-100S155.2 0 100 0zM45.2 110.3l52.1-55.7c1.6-1.6 4.3-1.6 5.9 0L133 83.9l.2.2c1.5 1.8 1.3 4.4-.5 5.9l-54.1 53.7H49.4c-2.2-.2-4-2-4.2-4.2v-29.2zm109.8 50H45.2c-2.3-.3-3.9-2.4-3.6-4.7.2-1.9 1.7-3.4 3.6-3.6H154c2.3-.3 4.4 1.3 4.7 3.6.3 2.3-1.4 4.4-3.7 4.7zm3.7-94.6L143.5 81l-35.4-35.4 15-15.2c1.6-1.6 3.7-2.5 5.9-2.5 2.3-.1 4.5.8 6.1 2.5L158.6 54c3.4 3.2 3.4 8.5.1 11.7z"/></svg>