<svg xmlns="http://www.w3.org/2000/svg" width="20" height="20"><defs><clipPath id="a"><path data-name="矩形 7765" transform="translate(360 784)" fill="#359836" stroke="#707070" d="M0 0h20v20H0z"/></clipPath></defs><g transform="translate(-360 -784)" clip-path="url(#a)"><path data-name="路径 2498" d="M360 784h20v20h-20z" fill="none"/><path data-name="路径 2499" d="M364.167 793.167h11.666v-5h-11.666zm13.333-5.834v13.334a.833.833 0 01-.833.833h-13.334a.833.833 0 01-.833-.833v-13.334a.833.833 0 01.833-.833h13.334a.833.833 0 01.833.833zm-1.667 7.5h-11.666v5h11.666zm-10 1.667h2.5v1.667h-2.5zm0-6.667h2.5v1.667h-2.5z" fill="#555"/></g></svg>