<svg xmlns="http://www.w3.org/2000/svg" width="250" height="250"><g data-name="组 2" transform="translate(-537 -152)"><circle data-name="椭圆 3" cx="125" cy="125" r="125" transform="translate(537 152)" fill="#3eb19b"/><path data-name="路径 7" d="M576.366 191.366h171.268v171.268H576.366z" fill="none"/><path data-name="路径 8" d="M662 355.776c30.25 0 54.773-24.071 54.773-53.764 0-6.208-1.68-12.165-3.652-17.706q-18.261 17.71-27.752 17.706c29.177-50.179 13.146-71.685-30.672-100.359 3.652 35.843-20.419 52.144-30.22 61.2a53.071 53.071 0 00-13.392 58.97A54.772 54.772 0 00662 355.776zm5.185-127.349c23.669 19.713 23.786 35.033 5.5 66.481-5.556 9.556 1.474 21.445 12.685 21.445a32.966 32.966 0 0015.475-4.265 40.414 40.414 0 01-75.55 5.888 38.911 38.911 0 019.187-44.684c.92-.846 5.587-4.91 5.791-5.09 3.1-2.724 5.645-5.14 8.165-7.785 8.983-9.448 15.439-19.928 18.74-31.986z" fill="#fff"/></g></svg>