<svg class="icon" viewBox="170 170 720 720" xmlns="http://www.w3.org/2000/svg"><defs><style/></defs><path d="M512 176c-194.4 0-352 157.6-352 352 0 194.416 157.6 352 352 352s352-157.584 352-352-157.6-352-352-352zm0 544.592c-22.304 0-40.384-18.08-40.384-40.384 0-22.304 18.08-40.384 40.384-40.384 22.32 0 40.384 18.096 40.384 40.384 0 22.304-18.064 40.384-40.384 40.384zm22.256-131.088c-3.504 10.992-12.32 18-22.256 18-9.952 0-19.248-8.512-22.256-18C486.752 579.984 464 431.68 464 368.688c0-16 16-48.992 47.504-48.992S560 352.192 560 368.688c0 63.488-22.256 209.808-25.744 220.816z" fill="#f4ea2a"/></svg>