<svg data-name="图层 1" xmlns="http://www.w3.org/2000/svg" viewBox="0 0 207.13 206.98"><path d="M12.49 114.64l81.84 43a17 17 0 0018.71 0l84.7-45.75a12.48 12.48 0 005.74-12.48l-99.8 52.4s-88.82-46.78-99.8-52a19.34 19.34 0 008.61 14.83zm-2.87-40.3l84.71 40.67a16.72 16.72 0 0018.84 0l84.71-40.67a13.1 13.1 0 001.63-18.45 13.1 13.1 0 00-1.63-1.63L113.17 6.6a15.84 15.84 0 00-18.84 0L9.62 54.38a12.48 12.48 0 00-2.5 17.47 12.48 12.48 0 002.5 2.49zm8.49-13.86l77.85-45.91a13.22 13.22 0 0115.72 0l74.85 43c5.36 3.24 8.11 8.73 2.87 11.48l-77.6 37.43a13.85 13.85 0 01-15.72 0L18.23 69.05c-5.49-3.24-5.36-4.87 0-8.61h-.12zm-14.22 82a12.48 12.48 0 005.74 12.48l84.71 45.66a16.59 16.59 0 0018.71 0l84.69-45.69a12.48 12.48 0 005.75-12.45l-99.8 52s-76.85-39.67-99.8-52h0z" fill="#3fb09a" stroke="#3fb09a" stroke-miterlimit="10" stroke-width="7"/></svg>