<svg version="1.1" id="图层_1" xmlns="http://www.w3.org/2000/svg" x="0" y="0" viewBox="0 0 200 200" xml:space="preserve"><style>.st0{fill:#3fb09a}</style><path class="st0" d="M100 0C44.8 0 0 44.8 0 100s44.8 100 100 100 100-44.8 100-100S155.2 0 100 0zm-9.3 113.3c-11.9 0-24.4-2.6-31.9-7.8v16.7c0 4.8 12.2 11.9 31.9 11.9v7c-18.9 0-38.9-6.7-38.9-18.9V67c0-12.2 20-18.9 38.9-18.9s38.9 6.7 38.9 18.9v20.4h-7v-9.6c-7.4 5.2-20 7.8-31.9 7.8S66.3 83 58.9 77.8v16.7c0 4.8 12.2 11.9 31.9 11.9l-.1 6.9zm57.4 25.2c0 6.7-9.3 13.3-26.3 13.3s-26.3-6.7-26.3-13.3V103c0-6.7 8.9-13.3 26.3-13.3 17 0 26.3 6.7 26.3 13.3v35.5z"/><path class="st0" d="M90.7 78.5c19.6 0 31.9-7 31.9-11.9s-12.2-11.9-31.9-11.9-31.9 7-31.9 11.9c.1 5.3 12.3 11.9 31.9 11.9zm31.2 18.2c-12.6 0-19.3 4.4-19.3 6.3s6.7 6.3 19.3 6.3c12.6 0 19.3-4.4 19.3-6.3-.1-2.3-6.8-6.3-19.3-6.3zM102.6 130v8.5c0 1.9 6.7 6.3 19.3 6.3 12.6 0 19.3-4.4 19.3-6.3V130c-4.4 2.6-10.7 4.1-19.3 4.1s-14.9-1.9-19.3-4.1zm0-17.8v8.5c0 1.9 6.7 6.3 19.3 6.3 12.6 0 19.3-4.4 19.3-6.3v-8.5c-4.4 2.6-10.7 4.1-19.3 4.1-8.6-.4-14.9-1.9-19.3-4.1z"/></svg>