<svg id="图层_1" data-name="图层 1" xmlns="http://www.w3.org/2000/svg" viewBox="0 0 178.13 199.63"><defs><style>.cls-1{fill:#3fb09a}</style></defs><path class="cls-1" d="M186.84 40.7a7.44 7.44 0 00-5.76-2.75H58.67a7.44 7.44 0 00-5.76 2.75 9.89 9.89 0 00-2.42 6.8v142.73a10 10 0 002.42 6.77 7.35 7.35 0 005.76 2.83h93.81c.74 0 2.15-.94 4.24-2.83s4.49-4.26 7.21-7.13 5.61-6 8.61-9.55 5.74-6.86 8.18-10 4.49-6 6.11-8.42 2.42-4.06 2.42-4.94V47.5a9.89 9.89 0 00-2.41-6.8zM62.15 105.63a4.19 4.19 0 014.2-4.2h107.07a4.19 4.19 0 014.2 4.2v3.26a4.19 4.19 0 01-4.2 4.2H66.35a4.19 4.19 0 01-4.2-4.2v-3.26zM177.68 138a4.19 4.19 0 01-4.2 4.2H66.41a4.19 4.19 0 01-4.2-4.2v-3.26a4.19 4.19 0 014.2-4.2h107.07a4.19 4.19 0 014.2 4.2V138zm0-58.22a4.19 4.19 0 01-4.2 4.2H66.41a4.19 4.19 0 01-4.2-4.2v-3.22a4.19 4.19 0 014.2-4.2h107.07a4.19 4.19 0 014.2 4.2v3.26z" transform="translate(-11.13 -.16)"/><path class="cls-1" d="M33.55 23.13h123.89v-19a4 4 0 00-4-4H15.12a4 4 0 00-4 4v176a4 4 0 004 4h18.42v-161z" transform="translate(-11.13 -.16)"/></svg>