<svg data-name="图层 1" xmlns="http://www.w3.org/2000/svg" viewBox="0 0 171.61 171.61"><circle cx="89" cy="89.5" r="68.03" fill="#a2a0bc"/><path d="M85.8 0a85.8 85.8 0 1085.8 85.8A85.8 85.8 0 0085.8 0zM57.04 122.27H38.66v-6.33l18.38-14.14v20.48zm23.14 0H61.8V98.39l9.5-7.31 8.89 8.72v22.44zm23.14 0H84.95V106.8l18.38-18.1v33.57zm23.14 0h-18.37V83.94l10.47-10.32 7.91 7.26v41.39zm-3.49-55.85l-4.58-4.51-32.51 32-14.23-14-33.04 25.13V94.26l33.8-26.23 13.51 13.29 26.13-25.69-5-5 21.7-5.61-5.71 21.37z" fill="#eceef1"/></svg>