<svg version="1.1" id="图层_1" xmlns="http://www.w3.org/2000/svg" x="0" y="0" viewBox="0 0 1920 1080" xml:space="preserve"><style>.st0{fill:none;stroke:#f7f8fa;stroke-miterlimit:10}.st1{fill:#edf2f8}</style><path class="st0" d="M37 0l21.5 191.6 348.3 308.3 215 50.7L933 678l178-61.5L1315 485l247.5-100.5L1741 239l22.8-239"/><path class="st0" d="M58.5 0l348.3 500.1 298.4 186.5L933 678l362-34 20-159 192.5 235.3 55-335.8 315 90L1741 239l179 64.5"/><path class="st0" d="M0 200l58.5-8.4 92.7 244.3 4.6 1.2 251 63L17 777.5l209.5 233 197.3-16.2L431 692l-22.5-195.5m-257.3-60.6L0 400"/><path class="st0" d="M148.7 439L69.3 626l-11-435.7M68 624.7L0 610m71.7 17.7l207.6 141M0 740.3L18.3 777l388.5-276.9m-392 277.8L0 790m74.7 169L0 862.7m72 97.6L0 996m75-35l94.3 119m52.4-68.3L181 1080m97.7-311.7L77.3 958m203.4-188.3l-54.4 236.1m59.5-236.3L426.5 692M282 771.5L644.3 857m-218 137l219.5-134.5m3.7 1.5l-51.2 124 1.8 95m-175.8-82.7l4 81m368.5-54.8l48.7-192.2-194.2 24.5M431.8 690l270.7.3m3.3.2l134.7 137.3m-196.2 24.7L434 692.5"/><path class="st0" d="M653.5 859.8L1008.3 961l181.2-158.9-342 26.2 446.8-182.8-107 151.3-253.8-116.5-90 146.7m167 135.8l-207.2 58L835 1080m-39-52.2l-13 52.2m230.8-113.7L1001 1080"/><path class="st0" d="M1015.3 966.5L1431 866.3l52.3 110.5-220.3 30.5-69.5-203.5 237.3 59.5 72-138.5-206.5-80"/><path class="st0" d="M1190.5 797.3L1512 724l155.5 174.3-181.7 75 36.7 106.7m-46-98l-58.2 98m56.7-107.7l-284.2-171"/><path class="st0" d="M1439.3 867l301.2-75.2-227.5-71.3 113.5-149.7-307.2-85.5"/><path class="st0" d="M1631 564l109.5-321.2 6.3 368.5-78.3 292.2-24.2 176.5m-208.8-209l254.8 209m92.5-96.5L1671 901.8m40.3 178.2l67.2-92.2 141.5 76.6m-136.2-83.6L1920 819.4M1743.8 795l176.2 18.8m-177.5-26.5L1876 477.8l44 213.2m-40-221.2l17-368.3L1840.8 0"/><path class="st0" d="M1744.8 235.5l158-128.2 17.2 33.5m-15.5-38L1920 98m-175.5 131.3L1889.5 0m-6 474.8L1920 501m-166.2 110l166.2 3.7m-662.8 394.1l2.7 71.2m-6.4-74.3l-192.2 74.3m-43.8-111.7l236.5 34.9M152 443l130 320.8m151.5-78l187-129.8m5-1.7L706.8 685"/><circle class="st1" cx="58.5" cy="191.6" r="9.6"/><circle class="st1" cx="151.2" cy="435.9" r="9.6"/><circle class="st1" cx="406.8" cy="499.9" r="9.6"/><circle class="st1" cx="621.8" cy="550.6" r="9.6"/><circle class="st1" cx="705.2" cy="686.6" r="9.6"/><circle class="st1" cx="428.5" cy="692.6" r="9.6"/><circle class="st1" cx="281.2" cy="766.9" r="9.6"/><circle class="st1" cx="67.2" cy="622.3" r="9.6"/><circle class="st1" cx="14.8" cy="777.9" r="9.6"/><circle class="st1" cx="76.5" cy="959.6" r="9.6"/><circle class="st1" cx="228.2" cy="1010.3" r="9.6"/><circle class="st1" cx="423.8" cy="994.3" r="9.6"/><circle class="st1" cx="597.5" cy="989.9" r="9.6"/><circle class="st1" cx="648.2" cy="859.3" r="9.6"/><circle class="st1" cx="844.5" cy="832.9" r="9.6"/><circle class="st1" cx="933" cy="678" r="9.6"/><circle class="st1" cx="1112" cy="615.5" r="9.6"/><circle class="st1" cx="1315" cy="485" r="9.6"/><circle class="st1" cx="1562.5" cy="384.5" r="9.6"/><circle class="st1" cx="1741" cy="239" r="9.6"/><circle class="st1" cx="1900.3" cy="103.7" r="9.6"/><circle class="st1" cx="1877.5" cy="474.5" r="9.6"/><circle class="st1" cx="1628" cy="572" r="9.6"/><circle class="st1" cx="798.2" cy="1025.3" r="9.6"/><circle class="st1" cx="1012.8" cy="964.9" r="9.6"/><circle class="st1" cx="1189.5" cy="802.1" r="9.6"/><circle class="st1" cx="1260.5" cy="1005.6" r="9.6"/><circle class="st1" cx="1432.2" cy="865.6" r="9.6"/><circle class="st1" cx="1481.5" cy="977.6" r="9.6"/><circle class="st1" cx="1667.5" cy="898.3" r="9.6"/><circle class="st1" cx="1741.5" cy="791.3" r="9.6"/><circle class="st1" cx="1507.5" cy="720.3" r="9.6"/><circle class="st1" cx="1293.5" cy="642.9" r="9.6"/><circle class="st1" cx="1749.5" cy="613.3" r="9.6"/><circle class="st1" cx="1780.8" cy="981.9" r="9.6"/></svg>